<?xml version="1.0" encoding="UTF-8" standalone="no"?><svg xmlns="http://www.w3.org/2000/svg" xmlns:xlink="http://www.w3.org/1999/xlink" contentScriptType="application/ecmascript" contentStyleType="text/css" height="190px" preserveAspectRatio="none" style="width:445px;height:190px;background:#FFFFFF;" version="1.1" viewBox="0 0 445 190" width="445px" zoomAndPan="magnify"><defs><filter height="300%" id="fxbzpf8rzij2j" width="300%" x="-1" y="-1"><feGaussianBlur result="blurOut" stdDeviation="2.0"/><feColorMatrix in="blurOut" result="blurOut2" type="matrix" values="0 0 0 0 0 0 0 0 0 0 0 0 0 0 0 0 0 0 .4 0"/><feOffset dx="4.0" dy="4.0" in="blurOut2" result="blurOut3"/><feBlend in="SourceGraphic" in2="blurOut3" mode="normal"/></filter></defs><g><!--MD5=[4e13963c9dc916a21a8436ef39422b32]
class Component--><rect fill="#FEFECE" filter="url(#fxbzpf8rzij2j)" height="60.8047" id="Component" style="stroke:#A80036;stroke-width:1.5;" width="101" x="154.5" y="7"/><ellipse cx="169.5" cy="23" fill="#ADD1B2" rx="11" ry="11" style="stroke:#A80036;stroke-width:1.0;"/><path d="M171.8438,18.6719 C170.9063,18.2344 170.3125,18.0938 169.4375,18.0938 C166.8125,18.0938 164.8125,20.1719 164.8125,22.8906 L164.8125,24.0156 C164.8125,26.5938 166.9219,28.4844 169.8125,28.4844 C171.0313,28.4844 172.1875,28.1875 172.9375,27.6406 C173.5156,27.2344 173.8438,26.7813 173.8438,26.3906 C173.8438,25.9375 173.4531,25.5469 172.9844,25.5469 C172.7656,25.5469 172.5625,25.625 172.375,25.8125 C171.9219,26.2969 171.9219,26.2969 171.7344,26.3906 C171.3125,26.6563 170.625,26.7813 169.8594,26.7813 C167.8125,26.7813 166.5156,25.6875 166.5156,23.9844 L166.5156,22.8906 C166.5156,21.1094 167.7656,19.7969 169.5,19.7969 C170.0781,19.7969 170.6875,19.9531 171.1563,20.2031 C171.6406,20.4844 171.8125,20.7031 171.9063,21.1094 C171.9688,21.5156 172,21.6406 172.1406,21.7656 C172.2813,21.9063 172.5156,22.0156 172.7344,22.0156 C173,22.0156 173.2656,21.875 173.4375,21.6563 C173.5469,21.5 173.5781,21.3125 173.5781,20.8906 L173.5781,19.4688 C173.5781,19.0313 173.5625,18.9063 173.4688,18.75 C173.3125,18.4844 173.0313,18.3438 172.7344,18.3438 C172.4375,18.3438 172.2344,18.4375 172.0156,18.75 L171.8438,18.6719 Z " fill="#000000"/><text fill="#000000" font-family="sans-serif" font-size="12" lengthAdjust="spacing" textLength="69" x="183.5" y="27.1543">Component</text><line style="stroke:#A80036;stroke-width:1.5;" x1="155.5" x2="254.5" y1="39" y2="39"/><line style="stroke:#A80036;stroke-width:1.5;" x1="155.5" x2="254.5" y1="47" y2="47"/><text fill="#000000" font-family="sans-serif" font-size="11" lengthAdjust="spacing" textLength="35" x="160.5" y="61.2104">draw()</text><!--MD5=[90ba54f54370e77ef24813dec6818fa3]
class Button--><rect fill="#FEFECE" filter="url(#fxbzpf8rzij2j)" height="48" id="Button" style="stroke:#A80036;stroke-width:1.5;" width="70" x="7" y="128"/><ellipse cx="22" cy="144" fill="#ADD1B2" rx="11" ry="11" style="stroke:#A80036;stroke-width:1.0;"/><path d="M24.3438,139.6719 C23.4063,139.2344 22.8125,139.0938 21.9375,139.0938 C19.3125,139.0938 17.3125,141.1719 17.3125,143.8906 L17.3125,145.0156 C17.3125,147.5938 19.4219,149.4844 22.3125,149.4844 C23.5313,149.4844 24.6875,149.1875 25.4375,148.6406 C26.0156,148.2344 26.3438,147.7813 26.3438,147.3906 C26.3438,146.9375 25.9531,146.5469 25.4844,146.5469 C25.2656,146.5469 25.0625,146.625 24.875,146.8125 C24.4219,147.2969 24.4219,147.2969 24.2344,147.3906 C23.8125,147.6563 23.125,147.7813 22.3594,147.7813 C20.3125,147.7813 19.0156,146.6875 19.0156,144.9844 L19.0156,143.8906 C19.0156,142.1094 20.2656,140.7969 22,140.7969 C22.5781,140.7969 23.1875,140.9531 23.6563,141.2031 C24.1406,141.4844 24.3125,141.7031 24.4063,142.1094 C24.4688,142.5156 24.5,142.6406 24.6406,142.7656 C24.7813,142.9063 25.0156,143.0156 25.2344,143.0156 C25.5,143.0156 25.7656,142.875 25.9375,142.6563 C26.0469,142.5 26.0781,142.3125 26.0781,141.8906 L26.0781,140.4688 C26.0781,140.0313 26.0625,139.9063 25.9688,139.75 C25.8125,139.4844 25.5313,139.3438 25.2344,139.3438 C24.9375,139.3438 24.7344,139.4375 24.5156,139.75 L24.3438,139.6719 Z " fill="#000000"/><text fill="#000000" font-family="sans-serif" font-size="12" lengthAdjust="spacing" textLength="38" x="36" y="148.1543">Button</text><line style="stroke:#A80036;stroke-width:1.5;" x1="8" x2="76" y1="160" y2="160"/><line style="stroke:#A80036;stroke-width:1.5;" x1="8" x2="76" y1="168" y2="168"/><!--MD5=[964f074a2dd77d134c21b891bb53e381]
class Image--><rect fill="#FEFECE" filter="url(#fxbzpf8rzij2j)" height="48" id="Image" style="stroke:#A80036;stroke-width:1.5;" width="69" x="112.5" y="128"/><ellipse cx="127.5" cy="144" fill="#ADD1B2" rx="11" ry="11" style="stroke:#A80036;stroke-width:1.0;"/><path d="M129.8438,139.6719 C128.9063,139.2344 128.3125,139.0938 127.4375,139.0938 C124.8125,139.0938 122.8125,141.1719 122.8125,143.8906 L122.8125,145.0156 C122.8125,147.5938 124.9219,149.4844 127.8125,149.4844 C129.0313,149.4844 130.1875,149.1875 130.9375,148.6406 C131.5156,148.2344 131.8438,147.7813 131.8438,147.3906 C131.8438,146.9375 131.4531,146.5469 130.9844,146.5469 C130.7656,146.5469 130.5625,146.625 130.375,146.8125 C129.9219,147.2969 129.9219,147.2969 129.7344,147.3906 C129.3125,147.6563 128.625,147.7813 127.8594,147.7813 C125.8125,147.7813 124.5156,146.6875 124.5156,144.9844 L124.5156,143.8906 C124.5156,142.1094 125.7656,140.7969 127.5,140.7969 C128.0781,140.7969 128.6875,140.9531 129.1563,141.2031 C129.6406,141.4844 129.8125,141.7031 129.9063,142.1094 C129.9688,142.5156 130,142.6406 130.1406,142.7656 C130.2813,142.9063 130.5156,143.0156 130.7344,143.0156 C131,143.0156 131.2656,142.875 131.4375,142.6563 C131.5469,142.5 131.5781,142.3125 131.5781,141.8906 L131.5781,140.4688 C131.5781,140.0313 131.5625,139.9063 131.4688,139.75 C131.3125,139.4844 131.0313,139.3438 130.7344,139.3438 C130.4375,139.3438 130.2344,139.4375 130.0156,139.75 L129.8438,139.6719 Z " fill="#000000"/><text fill="#000000" font-family="sans-serif" font-size="12" lengthAdjust="spacing" textLength="37" x="141.5" y="148.1543">Image</text><line style="stroke:#A80036;stroke-width:1.5;" x1="113.5" x2="180.5" y1="160" y2="160"/><line style="stroke:#A80036;stroke-width:1.5;" x1="113.5" x2="180.5" y1="168" y2="168"/><!--MD5=[d37277bb490993d81e15ddf1c6a6ea19]
class SelectBox--><rect fill="#FEFECE" filter="url(#fxbzpf8rzij2j)" height="48" id="SelectBox" style="stroke:#A80036;stroke-width:1.5;" width="93" x="216.5" y="128"/><ellipse cx="231.5" cy="144" fill="#ADD1B2" rx="11" ry="11" style="stroke:#A80036;stroke-width:1.0;"/><path d="M233.8438,139.6719 C232.9063,139.2344 232.3125,139.0938 231.4375,139.0938 C228.8125,139.0938 226.8125,141.1719 226.8125,143.8906 L226.8125,145.0156 C226.8125,147.5938 228.9219,149.4844 231.8125,149.4844 C233.0313,149.4844 234.1875,149.1875 234.9375,148.6406 C235.5156,148.2344 235.8438,147.7813 235.8438,147.3906 C235.8438,146.9375 235.4531,146.5469 234.9844,146.5469 C234.7656,146.5469 234.5625,146.625 234.375,146.8125 C233.9219,147.2969 233.9219,147.2969 233.7344,147.3906 C233.3125,147.6563 232.625,147.7813 231.8594,147.7813 C229.8125,147.7813 228.5156,146.6875 228.5156,144.9844 L228.5156,143.8906 C228.5156,142.1094 229.7656,140.7969 231.5,140.7969 C232.0781,140.7969 232.6875,140.9531 233.1563,141.2031 C233.6406,141.4844 233.8125,141.7031 233.9063,142.1094 C233.9688,142.5156 234,142.6406 234.1406,142.7656 C234.2813,142.9063 234.5156,143.0156 234.7344,143.0156 C235,143.0156 235.2656,142.875 235.4375,142.6563 C235.5469,142.5 235.5781,142.3125 235.5781,141.8906 L235.5781,140.4688 C235.5781,140.0313 235.5625,139.9063 235.4688,139.75 C235.3125,139.4844 235.0313,139.3438 234.7344,139.3438 C234.4375,139.3438 234.2344,139.4375 234.0156,139.75 L233.8438,139.6719 Z " fill="#000000"/><text fill="#000000" font-family="sans-serif" font-size="12" lengthAdjust="spacing" textLength="61" x="245.5" y="148.1543">SelectBox</text><line style="stroke:#A80036;stroke-width:1.5;" x1="217.5" x2="308.5" y1="160" y2="160"/><line style="stroke:#A80036;stroke-width:1.5;" x1="217.5" x2="308.5" y1="168" y2="168"/><!--MD5=[08f17f19c0d70a0e7c16ecefbdd21d1c]
class TextField--><rect fill="#FEFECE" filter="url(#fxbzpf8rzij2j)" height="48" id="TextField" style="stroke:#A80036;stroke-width:1.5;" width="87" x="344.5" y="128"/><ellipse cx="359.5" cy="144" fill="#ADD1B2" rx="11" ry="11" style="stroke:#A80036;stroke-width:1.0;"/><path d="M361.8438,139.6719 C360.9063,139.2344 360.3125,139.0938 359.4375,139.0938 C356.8125,139.0938 354.8125,141.1719 354.8125,143.8906 L354.8125,145.0156 C354.8125,147.5938 356.9219,149.4844 359.8125,149.4844 C361.0313,149.4844 362.1875,149.1875 362.9375,148.6406 C363.5156,148.2344 363.8438,147.7813 363.8438,147.3906 C363.8438,146.9375 363.4531,146.5469 362.9844,146.5469 C362.7656,146.5469 362.5625,146.625 362.375,146.8125 C361.9219,147.2969 361.9219,147.2969 361.7344,147.3906 C361.3125,147.6563 360.625,147.7813 359.8594,147.7813 C357.8125,147.7813 356.5156,146.6875 356.5156,144.9844 L356.5156,143.8906 C356.5156,142.1094 357.7656,140.7969 359.5,140.7969 C360.0781,140.7969 360.6875,140.9531 361.1563,141.2031 C361.6406,141.4844 361.8125,141.7031 361.9063,142.1094 C361.9688,142.5156 362,142.6406 362.1406,142.7656 C362.2813,142.9063 362.5156,143.0156 362.7344,143.0156 C363,143.0156 363.2656,142.875 363.4375,142.6563 C363.5469,142.5 363.5781,142.3125 363.5781,141.8906 L363.5781,140.4688 C363.5781,140.0313 363.5625,139.9063 363.4688,139.75 C363.3125,139.4844 363.0313,139.3438 362.7344,139.3438 C362.4375,139.3438 362.2344,139.4375 362.0156,139.75 L361.8438,139.6719 Z " fill="#000000"/><text fill="#000000" font-family="sans-serif" font-size="12" lengthAdjust="spacing" textLength="55" x="373.5" y="148.1543">TextField</text><line style="stroke:#A80036;stroke-width:1.5;" x1="345.5" x2="430.5" y1="160" y2="160"/><line style="stroke:#A80036;stroke-width:1.5;" x1="345.5" x2="430.5" y1="168" y2="168"/><!--MD5=[bf750746d61d5c7192879770261cd384]
reverse link Component to Button--><path codeLine="1" d="M145.589,79.5046 C121.992,95.791 95.7225,113.9216 75.5421,127.8498 " fill="none" id="Component-backto-Button" style="stroke:#A80036;stroke-width:1.0;"/><polygon fill="none" points="141.737,73.658,162.174,68.058,149.69,85.1797,141.737,73.658" style="stroke:#A80036;stroke-width:1.0;"/><!--MD5=[7db5039140617cf79ef5918a1f7c31ef]
reverse link Component to Image--><path codeLine="2" d="M180.425,86.1667 C173.023,100.5235 165.228,115.6443 159.029,127.6686 " fill="none" id="Component-backto-Image" style="stroke:#A80036;stroke-width:1.0;"/><polygon fill="none" points="174.375,82.6269,189.761,68.058,186.818,89.0423,174.375,82.6269" style="stroke:#A80036;stroke-width:1.0;"/><!--MD5=[f68543778f8ee165b729ca5a4524e3e9]
reverse link Component to SelectBox--><path codeLine="3" d="M229.575,86.1667 C236.977,100.5235 244.772,115.6443 250.971,127.6686 " fill="none" id="Component-backto-SelectBox" style="stroke:#A80036;stroke-width:1.0;"/><polygon fill="none" points="223.182,89.0423,220.239,68.058,235.625,82.6269,223.182,89.0423" style="stroke:#A80036;stroke-width:1.0;"/><!--MD5=[91afbadd7a12432e1839cc291142b7b4]
reverse link Component to TextField--><path codeLine="4" d="M270.161,78.558 C297.045,95.0853 327.246,113.6512 350.342,127.8498 " fill="none" id="Component-backto-TextField" style="stroke:#A80036;stroke-width:1.0;"/><polygon fill="none" points="266.453,84.4955,253.081,68.058,273.785,72.569,266.453,84.4955" style="stroke:#A80036;stroke-width:1.0;"/><!--MD5=[5898fdb2cbaa929096dbc3c1bb4ba005]
@startuml
Component <|- - Button
Component <|- - Image
Component <|- - SelectBox
Component <|- - TextField

Component : draw()
@enduml

PlantUML version 1.2021.15beta6(Unknown compile time)
(GPL source distribution)
Java Runtime: Java(TM) SE Runtime Environment
JVM: Java HotSpot(TM) 64-Bit Server VM
Default Encoding: UTF-8
Language: en
Country: US
--></g></svg>