<?xml version="1.0" encoding="UTF-8" standalone="no"?><svg xmlns="http://www.w3.org/2000/svg" xmlns:xlink="http://www.w3.org/1999/xlink" contentScriptType="application/ecmascript" contentStyleType="text/css" height="71px" preserveAspectRatio="none" style="width:604px;height:71px;background:#FFFFFF;" version="1.1" viewBox="0 0 604 71" width="604px" zoomAndPan="magnify"><defs><filter height="300%" id="f1p0v2h9iugf0o" width="300%" x="-1" y="-1"><feGaussianBlur result="blurOut" stdDeviation="2.0"/><feColorMatrix in="blurOut" result="blurOut2" type="matrix" values="0 0 0 0 0 0 0 0 0 0 0 0 0 0 0 0 0 0 .4 0"/><feOffset dx="4.0" dy="4.0" in="blurOut2" result="blurOut3"/><feBlend in="SourceGraphic" in2="blurOut3" mode="normal"/></filter></defs><g><ellipse cx="16" cy="32" fill="#000000" filter="url(#f1p0v2h9iugf0o)" rx="10" ry="10" style="stroke:none;stroke-width:1.0;"/><g id="Draft"><rect fill="#FEFECE" filter="url(#f1p0v2h9iugf0o)" height="50" rx="12.5" ry="12.5" style="stroke:#A80036;stroke-width:1.5;" width="58" x="61" y="7"/><line style="stroke:#A80036;stroke-width:1.5;" x1="61" x2="119" y1="33.2969" y2="33.2969"/><text fill="#000000" font-family="sans-serif" font-size="14" lengthAdjust="spacing" textLength="38" x="71" y="24.9951">Draft</text></g><g id="PendingReview"><rect fill="#FEFECE" filter="url(#f1p0v2h9iugf0o)" height="50" rx="12.5" ry="12.5" style="stroke:#A80036;stroke-width:1.5;" width="129" x="264.5" y="7"/><line style="stroke:#A80036;stroke-width:1.5;" x1="264.5" x2="393.5" y1="33.2969" y2="33.2969"/><text fill="#000000" font-family="sans-serif" font-size="14" lengthAdjust="spacing" textLength="109" x="274.5" y="24.9951">PendingReview</text></g><g id="Published"><rect fill="#FEFECE" filter="url(#f1p0v2h9iugf0o)" height="50" rx="12.5" ry="12.5" style="stroke:#A80036;stroke-width:1.5;" width="89" x="501.5" y="7"/><line style="stroke:#A80036;stroke-width:1.5;" x1="501.5" x2="590.5" y1="33.2969" y2="33.2969"/><text fill="#000000" font-family="sans-serif" font-size="14" lengthAdjust="spacing" textLength="69" x="511.5" y="24.9951">Published</text></g><!--MD5=[c437118b2706405049936a1b53a98f1f]
link *start to Draft--><path d="M26.1172,32 C35.8922,32 45.6673,32 55.4423,32 " fill="none" id="*start-to-Draft" style="stroke:#A80036;stroke-width:1.0;"/><polygon fill="#A80036" points="60.554,32,51.554,28,55.554,32,51.554,36,60.554,32" style="stroke:#A80036;stroke-width:1.0;"/><!--MD5=[82a7c3fcd21b976a80713a34431021d7]
link Draft to PendingReview--><path d="M119.306,32 C153.943,32 212.748,32 259.287,32 " fill="none" id="Draft-to-PendingReview" style="stroke:#A80036;stroke-width:1.0;"/><polygon fill="#A80036" points="264.323,32,255.323,28,259.323,32,255.323,36,264.323,32" style="stroke:#A80036;stroke-width:1.0;"/><text fill="#000000" font-family="sans-serif" font-size="13" lengthAdjust="spacing" textLength="109" x="137.25" y="25.0669">request_review()</text><!--MD5=[d3e310c6c5668e07a8bb22298f6ac127]
link PendingReview to Published--><path d="M393.52,32 C426.352,32 465.651,32 496.129,32 " fill="none" id="PendingReview-to-Published" style="stroke:#A80036;stroke-width:1.0;"/><polygon fill="#A80036" points="501.327,32,492.327,28,496.327,32,492.327,36,501.327,32" style="stroke:#A80036;stroke-width:1.0;"/><text fill="#000000" font-family="sans-serif" font-size="13" lengthAdjust="spacing" textLength="71" x="412" y="25.0669">approved()</text><!--MD5=[8a25df2265db77ca52574342be21e8b3]
@startuml
[*] -right-> Draft
Draft -right-> PendingReview: request_review()
PendingReview -right-> Published: approved()
@enduml

PlantUML version 1.2021.15beta6(Unknown compile time)
(GPL source distribution)
Java Runtime: Java(TM) SE Runtime Environment
JVM: Java HotSpot(TM) 64-Bit Server VM
Default Encoding: UTF-8
Language: en
Country: US
--></g></svg>