<?xml version="1.0" encoding="UTF-8" standalone="no"?><svg xmlns="http://www.w3.org/2000/svg" xmlns:xlink="http://www.w3.org/1999/xlink" contentScriptType="application/ecmascript" contentStyleType="text/css" height="241px" preserveAspectRatio="none" style="width:406px;height:241px;background:#FFFFFF;" version="1.1" viewBox="0 0 406 241" width="406px" zoomAndPan="magnify"><defs><filter height="300%" id="fmqji94mqa2lr" width="300%" x="-1" y="-1"><feGaussianBlur result="blurOut" stdDeviation="2.0"/><feColorMatrix in="blurOut" result="blurOut2" type="matrix" values="0 0 0 0 0 0 0 0 0 0 0 0 0 0 0 0 0 0 .4 0"/><feOffset dx="4.0" dy="4.0" in="blurOut2" result="blurOut3"/><feBlend in="SourceGraphic" in2="blurOut3" mode="normal"/></filter></defs><g><!--MD5=[9bb0bdd047fba1a3c8d48282c35b4537]
class Post--><rect fill="#FEFECE" filter="url(#fmqji94mqa2lr)" height="112.0234" id="Post" style="stroke:#A80036;stroke-width:1.5;" width="109" x="7" y="7"/><ellipse cx="45.4" cy="23" fill="#ADD1B2" rx="11" ry="11" style="stroke:#A80036;stroke-width:1.0;"/><path d="M47.7438,18.6719 C46.8063,18.2344 46.2125,18.0938 45.3375,18.0938 C42.7125,18.0938 40.7125,20.1719 40.7125,22.8906 L40.7125,24.0156 C40.7125,26.5938 42.8219,28.4844 45.7125,28.4844 C46.9313,28.4844 48.0875,28.1875 48.8375,27.6406 C49.4156,27.2344 49.7438,26.7813 49.7438,26.3906 C49.7438,25.9375 49.3531,25.5469 48.8844,25.5469 C48.6656,25.5469 48.4625,25.625 48.275,25.8125 C47.8219,26.2969 47.8219,26.2969 47.6344,26.3906 C47.2125,26.6563 46.525,26.7813 45.7594,26.7813 C43.7125,26.7813 42.4156,25.6875 42.4156,23.9844 L42.4156,22.8906 C42.4156,21.1094 43.6656,19.7969 45.4,19.7969 C45.9781,19.7969 46.5875,19.9531 47.0563,20.2031 C47.5406,20.4844 47.7125,20.7031 47.8063,21.1094 C47.8688,21.5156 47.9,21.6406 48.0406,21.7656 C48.1813,21.9063 48.4156,22.0156 48.6344,22.0156 C48.9,22.0156 49.1656,21.875 49.3375,21.6563 C49.4469,21.5 49.4781,21.3125 49.4781,20.8906 L49.4781,19.4688 C49.4781,19.0313 49.4625,18.9063 49.3688,18.75 C49.2125,18.4844 48.9313,18.3438 48.6344,18.3438 C48.3375,18.3438 48.1344,18.4375 47.9156,18.75 L47.7438,18.6719 Z " fill="#000000"/><text fill="#000000" font-family="sans-serif" font-size="12" lengthAdjust="spacing" textLength="25" x="64.6" y="27.1543">Post</text><line style="stroke:#A80036;stroke-width:1.5;" x1="8" x2="115" y1="39" y2="39"/><text fill="#000000" font-family="sans-serif" font-size="11" lengthAdjust="spacing" textLength="64" x="13" y="53.2104">State state</text><line style="stroke:#A80036;stroke-width:1.5;" x1="8" x2="115" y1="59.8047" y2="59.8047"/><text fill="#000000" font-family="sans-serif" font-size="11" lengthAdjust="spacing" textLength="51" x="13" y="74.0151">content()</text><text fill="#000000" font-family="sans-serif" font-size="11" lengthAdjust="spacing" textLength="58" x="13" y="86.8198">add_text()</text><text fill="#000000" font-family="sans-serif" font-size="11" lengthAdjust="spacing" textLength="97" x="13" y="99.6245">request_review()</text><text fill="#000000" font-family="sans-serif" font-size="11" lengthAdjust="spacing" textLength="55" x="13" y="112.4292">approve()</text><!--MD5=[60d6b92408f98aed8df94d5c6e04aa63]
class State--><rect fill="#FEFECE" filter="url(#fmqji94mqa2lr)" height="86.4141" id="State" style="stroke:#A80036;stroke-width:1.5;" width="111" x="151" y="20"/><ellipse cx="187.6" cy="36" fill="#ADD1B2" rx="11" ry="11" style="stroke:#A80036;stroke-width:1.0;"/><path d="M189.9438,31.6719 C189.0063,31.2344 188.4125,31.0938 187.5375,31.0938 C184.9125,31.0938 182.9125,33.1719 182.9125,35.8906 L182.9125,37.0156 C182.9125,39.5938 185.0219,41.4844 187.9125,41.4844 C189.1313,41.4844 190.2875,41.1875 191.0375,40.6406 C191.6156,40.2344 191.9438,39.7813 191.9438,39.3906 C191.9438,38.9375 191.5531,38.5469 191.0844,38.5469 C190.8656,38.5469 190.6625,38.625 190.475,38.8125 C190.0219,39.2969 190.0219,39.2969 189.8344,39.3906 C189.4125,39.6563 188.725,39.7813 187.9594,39.7813 C185.9125,39.7813 184.6156,38.6875 184.6156,36.9844 L184.6156,35.8906 C184.6156,34.1094 185.8656,32.7969 187.6,32.7969 C188.1781,32.7969 188.7875,32.9531 189.2563,33.2031 C189.7406,33.4844 189.9125,33.7031 190.0063,34.1094 C190.0688,34.5156 190.1,34.6406 190.2406,34.7656 C190.3813,34.9063 190.6156,35.0156 190.8344,35.0156 C191.1,35.0156 191.3656,34.875 191.5375,34.6563 C191.6469,34.5 191.6781,34.3125 191.6781,33.8906 L191.6781,32.4688 C191.6781,32.0313 191.6625,31.9063 191.5688,31.75 C191.4125,31.4844 191.1313,31.3438 190.8344,31.3438 C190.5375,31.3438 190.3344,31.4375 190.1156,31.75 L189.9438,31.6719 Z " fill="#000000"/><text fill="#000000" font-family="sans-serif" font-size="12" lengthAdjust="spacing" textLength="31" x="206.4" y="40.1543">State</text><line style="stroke:#A80036;stroke-width:1.5;" x1="152" x2="261" y1="52" y2="52"/><line style="stroke:#A80036;stroke-width:1.5;" x1="152" x2="261" y1="60" y2="60"/><text fill="#000000" font-family="sans-serif" font-size="11" lengthAdjust="spacing" textLength="99" x="157" y="74.2104">pending_review()</text><text fill="#000000" font-family="sans-serif" font-size="11" lengthAdjust="spacing" textLength="62" x="157" y="87.0151">approved()</text><text fill="#000000" font-family="sans-serif" font-size="11" lengthAdjust="spacing" textLength="51" x="157" y="99.8198">content()</text><!--MD5=[9fce796000a30cfb9f92e73bb002c25c]
class Draft--><rect fill="#FEFECE" filter="url(#fmqji94mqa2lr)" height="48" id="Draft" style="stroke:#A80036;stroke-width:1.5;" width="61" x="49" y="179"/><ellipse cx="64" cy="195" fill="#ADD1B2" rx="11" ry="11" style="stroke:#A80036;stroke-width:1.0;"/><path d="M66.3438,190.6719 C65.4063,190.2344 64.8125,190.0938 63.9375,190.0938 C61.3125,190.0938 59.3125,192.1719 59.3125,194.8906 L59.3125,196.0156 C59.3125,198.5938 61.4219,200.4844 64.3125,200.4844 C65.5313,200.4844 66.6875,200.1875 67.4375,199.6406 C68.0156,199.2344 68.3438,198.7813 68.3438,198.3906 C68.3438,197.9375 67.9531,197.5469 67.4844,197.5469 C67.2656,197.5469 67.0625,197.625 66.875,197.8125 C66.4219,198.2969 66.4219,198.2969 66.2344,198.3906 C65.8125,198.6563 65.125,198.7813 64.3594,198.7813 C62.3125,198.7813 61.0156,197.6875 61.0156,195.9844 L61.0156,194.8906 C61.0156,193.1094 62.2656,191.7969 64,191.7969 C64.5781,191.7969 65.1875,191.9531 65.6563,192.2031 C66.1406,192.4844 66.3125,192.7031 66.4063,193.1094 C66.4688,193.5156 66.5,193.6406 66.6406,193.7656 C66.7813,193.9063 67.0156,194.0156 67.2344,194.0156 C67.5,194.0156 67.7656,193.875 67.9375,193.6563 C68.0469,193.5 68.0781,193.3125 68.0781,192.8906 L68.0781,191.4688 C68.0781,191.0313 68.0625,190.9063 67.9688,190.75 C67.8125,190.4844 67.5313,190.3438 67.2344,190.3438 C66.9375,190.3438 66.7344,190.4375 66.5156,190.75 L66.3438,190.6719 Z " fill="#000000"/><text fill="#000000" font-family="sans-serif" font-size="12" lengthAdjust="spacing" textLength="29" x="78" y="199.1543">Draft</text><line style="stroke:#A80036;stroke-width:1.5;" x1="50" x2="109" y1="211" y2="211"/><line style="stroke:#A80036;stroke-width:1.5;" x1="50" x2="109" y1="219" y2="219"/><!--MD5=[5c24588a2494d6c874ae6ffcc64fc1e7]
class PendingReview--><rect fill="#FEFECE" filter="url(#fmqji94mqa2lr)" height="48" id="PendingReview" style="stroke:#A80036;stroke-width:1.5;" width="122" x="145.5" y="179"/><ellipse cx="160.5" cy="195" fill="#ADD1B2" rx="11" ry="11" style="stroke:#A80036;stroke-width:1.0;"/><path d="M162.8438,190.6719 C161.9063,190.2344 161.3125,190.0938 160.4375,190.0938 C157.8125,190.0938 155.8125,192.1719 155.8125,194.8906 L155.8125,196.0156 C155.8125,198.5938 157.9219,200.4844 160.8125,200.4844 C162.0313,200.4844 163.1875,200.1875 163.9375,199.6406 C164.5156,199.2344 164.8438,198.7813 164.8438,198.3906 C164.8438,197.9375 164.4531,197.5469 163.9844,197.5469 C163.7656,197.5469 163.5625,197.625 163.375,197.8125 C162.9219,198.2969 162.9219,198.2969 162.7344,198.3906 C162.3125,198.6563 161.625,198.7813 160.8594,198.7813 C158.8125,198.7813 157.5156,197.6875 157.5156,195.9844 L157.5156,194.8906 C157.5156,193.1094 158.7656,191.7969 160.5,191.7969 C161.0781,191.7969 161.6875,191.9531 162.1563,192.2031 C162.6406,192.4844 162.8125,192.7031 162.9063,193.1094 C162.9688,193.5156 163,193.6406 163.1406,193.7656 C163.2813,193.9063 163.5156,194.0156 163.7344,194.0156 C164,194.0156 164.2656,193.875 164.4375,193.6563 C164.5469,193.5 164.5781,193.3125 164.5781,192.8906 L164.5781,191.4688 C164.5781,191.0313 164.5625,190.9063 164.4688,190.75 C164.3125,190.4844 164.0313,190.3438 163.7344,190.3438 C163.4375,190.3438 163.2344,190.4375 163.0156,190.75 L162.8438,190.6719 Z " fill="#000000"/><text fill="#000000" font-family="sans-serif" font-size="12" lengthAdjust="spacing" textLength="90" x="174.5" y="199.1543">PendingReview</text><line style="stroke:#A80036;stroke-width:1.5;" x1="146.5" x2="266.5" y1="211" y2="211"/><line style="stroke:#A80036;stroke-width:1.5;" x1="146.5" x2="266.5" y1="219" y2="219"/><!--MD5=[e66a40bb0061332aef8b23a05100b11a]
class Published--><rect fill="#FEFECE" filter="url(#fmqji94mqa2lr)" height="48" id="Published" style="stroke:#A80036;stroke-width:1.5;" width="89" x="303" y="179"/><ellipse cx="318" cy="195" fill="#ADD1B2" rx="11" ry="11" style="stroke:#A80036;stroke-width:1.0;"/><path d="M320.3438,190.6719 C319.4063,190.2344 318.8125,190.0938 317.9375,190.0938 C315.3125,190.0938 313.3125,192.1719 313.3125,194.8906 L313.3125,196.0156 C313.3125,198.5938 315.4219,200.4844 318.3125,200.4844 C319.5313,200.4844 320.6875,200.1875 321.4375,199.6406 C322.0156,199.2344 322.3438,198.7813 322.3438,198.3906 C322.3438,197.9375 321.9531,197.5469 321.4844,197.5469 C321.2656,197.5469 321.0625,197.625 320.875,197.8125 C320.4219,198.2969 320.4219,198.2969 320.2344,198.3906 C319.8125,198.6563 319.125,198.7813 318.3594,198.7813 C316.3125,198.7813 315.0156,197.6875 315.0156,195.9844 L315.0156,194.8906 C315.0156,193.1094 316.2656,191.7969 318,191.7969 C318.5781,191.7969 319.1875,191.9531 319.6563,192.2031 C320.1406,192.4844 320.3125,192.7031 320.4063,193.1094 C320.4688,193.5156 320.5,193.6406 320.6406,193.7656 C320.7813,193.9063 321.0156,194.0156 321.2344,194.0156 C321.5,194.0156 321.7656,193.875 321.9375,193.6563 C322.0469,193.5 322.0781,193.3125 322.0781,192.8906 L322.0781,191.4688 C322.0781,191.0313 322.0625,190.9063 321.9688,190.75 C321.8125,190.4844 321.5313,190.3438 321.2344,190.3438 C320.9375,190.3438 320.7344,190.4375 320.5156,190.75 L320.3438,190.6719 Z " fill="#000000"/><text fill="#000000" font-family="sans-serif" font-size="12" lengthAdjust="spacing" textLength="57" x="332" y="199.1543">Published</text><line style="stroke:#A80036;stroke-width:1.5;" x1="304" x2="391" y1="211" y2="211"/><line style="stroke:#A80036;stroke-width:1.5;" x1="304" x2="391" y1="219" y2="219"/><!--MD5=[6d3c39d9d2b58a3955adba8feb8dad27]
reverse link Post to State--><path codeLine="1" d="M129.397,63 C136.512,63 143.627,63 150.742,63 " fill="none" id="Post-backto-State" style="stroke:#A80036;stroke-width:1.0;"/><polygon fill="#A80036" points="116.158,63,122.158,67,128.158,63,122.158,59,116.158,63" style="stroke:#A80036;stroke-width:1.0;"/><!--MD5=[1a5325e60243bc805d6102b02ad689e3]
reverse link State to Draft--><path codeLine="3" d="M154.084,120.956 C135.364,141.2978 115.316,163.0814 100.7257,178.9359 " fill="none" id="State-backto-Draft" style="stroke:#A80036;stroke-width:1.0;"/><polygon fill="none" points="149.011,116.131,167.706,106.154,159.313,125.611,149.011,116.131" style="stroke:#A80036;stroke-width:1.0;"/><!--MD5=[91e456fe4f2a2499c676039f71643ca1]
reverse link State to PendingReview--><path codeLine="4" d="M206.5,126.342 C206.5,145.0775 206.5,164.4735 206.5,178.9359 " fill="none" id="State-backto-PendingReview" style="stroke:#A80036;stroke-width:1.0;"/><polygon fill="none" points="199.5,126.154,206.5,106.154,213.5,126.154,199.5,126.154" style="stroke:#A80036;stroke-width:1.0;"/><!--MD5=[06931a3fe21878208193f01e4d087aac]
reverse link State to Published--><path codeLine="5" d="M264.086,120.361 C285.043,140.8722 307.577,162.9267 323.935,178.9359 " fill="none" id="State-backto-Published" style="stroke:#A80036;stroke-width:1.0;"/><polygon fill="none" points="258.968,125.146,249.571,106.154,268.76,115.141,258.968,125.146" style="stroke:#A80036;stroke-width:1.0;"/><!--MD5=[4da2f7828a1337b959d459e1ec510231]
@startuml
Post *-right- State

State <|- - Draft
State <|- - PendingReview
State <|- - Published

Post : content() 
Post : add_text() 
Post : request_review() 
Post : approve() 
Post : State state
State : pending_review()
State : approved()
State : content()
@enduml

PlantUML version 1.2021.15beta8(Unknown compile time)
(GPL source distribution)
Java Runtime: Java(TM) SE Runtime Environment
JVM: Java HotSpot(TM) 64-Bit Server VM
Default Encoding: UTF-8
Language: en
Country: US
--></g></svg>